<mxfile host="app.diagrams.net" modified="2020-09-17T00:47:39.550Z" agent="5.0 (Macintosh; Intel Mac OS X 10_15_6) AppleWebKit/537.36 (KHTML, like Gecko) Chrome/85.0.4183.83 Safari/537.36" etag="lwaVSV99anHVJycyCfeE" version="13.7.2" type="github">
  <diagram id="BcgjFatTGbTyj0E-JvCU" name="Page-1">
    <mxGraphModel dx="1577" dy="983" grid="1" gridSize="10" guides="1" tooltips="1" connect="1" arrows="1" fold="1" page="1" pageScale="1" pageWidth="850" pageHeight="1100" math="0" shadow="0">
      <root>
        <mxCell id="0" />
        <mxCell id="1" parent="0" />
        <mxCell id="JgftFQ6_yCxk7IAfxNmy-196" value="" style="rounded=0;whiteSpace=wrap;html=1;dashed=1;strokeWidth=2;fillColor=none;" parent="1" vertex="1">
          <mxGeometry x="310" y="170" width="1160" height="660" as="geometry" />
        </mxCell>
        <mxCell id="JgftFQ6_yCxk7IAfxNmy-183" value="" style="endArrow=none;html=1;" parent="1" edge="1">
          <mxGeometry width="50" height="50" relative="1" as="geometry">
            <mxPoint x="270" y="235.51999999999998" as="sourcePoint" />
            <mxPoint x="310" y="235.51999999999998" as="targetPoint" />
          </mxGeometry>
        </mxCell>
        <mxCell id="JgftFQ6_yCxk7IAfxNmy-184" value="" style="endArrow=none;html=1;" parent="1" edge="1">
          <mxGeometry width="50" height="50" relative="1" as="geometry">
            <mxPoint x="270" y="215.51999999999998" as="sourcePoint" />
            <mxPoint x="310" y="215.51999999999998" as="targetPoint" />
          </mxGeometry>
        </mxCell>
        <mxCell id="JgftFQ6_yCxk7IAfxNmy-195" value="" style="group;" parent="1" vertex="1" connectable="0">
          <mxGeometry x="270" y="230" width="1164" height="630" as="geometry" />
        </mxCell>
        <mxCell id="JgftFQ6_yCxk7IAfxNmy-191" style="edgeStyle=orthogonalEdgeStyle;rounded=0;orthogonalLoop=1;jettySize=auto;html=1;endArrow=none;endFill=0;" parent="JgftFQ6_yCxk7IAfxNmy-195" source="JgftFQ6_yCxk7IAfxNmy-2" edge="1">
          <mxGeometry relative="1" as="geometry">
            <mxPoint y="45" as="targetPoint" />
          </mxGeometry>
        </mxCell>
        <mxCell id="JgftFQ6_yCxk7IAfxNmy-231" value="IR_IN" style="edgeLabel;html=1;align=center;verticalAlign=middle;resizable=0;points=[];fontSize=15;" parent="JgftFQ6_yCxk7IAfxNmy-191" vertex="1" connectable="0">
          <mxGeometry x="0.8407" relative="1" as="geometry">
            <mxPoint x="-28.62" as="offset" />
          </mxGeometry>
        </mxCell>
        <mxCell id="JgftFQ6_yCxk7IAfxNmy-2" value="ALU OPCODE &lt;br style=&quot;font-size: 20px;&quot;&gt;LUT" style="rounded=0;whiteSpace=wrap;html=1;fillColor=none;fontSize=20;" parent="JgftFQ6_yCxk7IAfxNmy-195" vertex="1">
          <mxGeometry x="110" width="200" height="90" as="geometry" />
        </mxCell>
        <mxCell id="JgftFQ6_yCxk7IAfxNmy-3" value="CONTROL WORD &lt;br style=&quot;font-size: 20px;&quot;&gt;LUT" style="rounded=0;whiteSpace=wrap;html=1;fillColor=none;fontSize=20;" parent="JgftFQ6_yCxk7IAfxNmy-195" vertex="1">
          <mxGeometry x="114" y="120" width="210" height="440" as="geometry" />
        </mxCell>
        <mxCell id="JgftFQ6_yCxk7IAfxNmy-189" style="edgeStyle=orthogonalEdgeStyle;rounded=0;orthogonalLoop=1;jettySize=auto;html=1;exitX=0;exitY=0.5;exitDx=0;exitDy=0;entryX=0;entryY=0.5;entryDx=0;entryDy=0;endArrow=none;endFill=0;" parent="JgftFQ6_yCxk7IAfxNmy-195" source="JgftFQ6_yCxk7IAfxNmy-2" target="JgftFQ6_yCxk7IAfxNmy-3" edge="1">
          <mxGeometry relative="1" as="geometry">
            <Array as="points">
              <mxPoint x="70" y="45" />
              <mxPoint x="70" y="340" />
            </Array>
          </mxGeometry>
        </mxCell>
        <mxCell id="JgftFQ6_yCxk7IAfxNmy-4" value="CW1" style="rounded=0;whiteSpace=wrap;html=1;rotation=90;fontSize=20;" parent="JgftFQ6_yCxk7IAfxNmy-195" vertex="1">
          <mxGeometry x="228.37" y="312.6700000000001" width="448.92" height="35.63" as="geometry" />
        </mxCell>
        <mxCell id="JgftFQ6_yCxk7IAfxNmy-5" style="edgeStyle=orthogonalEdgeStyle;rounded=0;orthogonalLoop=1;jettySize=auto;html=1;entryX=0.25;entryY=1;entryDx=0;entryDy=0;endArrow=none;endFill=0;" parent="JgftFQ6_yCxk7IAfxNmy-195" source="JgftFQ6_yCxk7IAfxNmy-2" target="JgftFQ6_yCxk7IAfxNmy-4" edge="1">
          <mxGeometry relative="1" as="geometry">
            <Array as="points">
              <mxPoint x="370" y="35" />
              <mxPoint x="370" y="120" />
              <mxPoint x="435" y="120" />
            </Array>
          </mxGeometry>
        </mxCell>
        <mxCell id="JgftFQ6_yCxk7IAfxNmy-29" value="" style="endArrow=none;html=1;" parent="JgftFQ6_yCxk7IAfxNmy-195" edge="1">
          <mxGeometry width="50" height="50" relative="1" as="geometry">
            <mxPoint x="470" y="120" as="sourcePoint" />
            <mxPoint x="580" y="120" as="targetPoint" />
          </mxGeometry>
        </mxCell>
        <mxCell id="JgftFQ6_yCxk7IAfxNmy-30" value="" style="endArrow=none;html=1;" parent="JgftFQ6_yCxk7IAfxNmy-195" edge="1">
          <mxGeometry width="50" height="50" relative="1" as="geometry">
            <mxPoint x="470" y="140.00000000000006" as="sourcePoint" />
            <mxPoint x="580" y="140.00000000000006" as="targetPoint" />
          </mxGeometry>
        </mxCell>
        <mxCell id="JgftFQ6_yCxk7IAfxNmy-31" value="" style="endArrow=none;html=1;" parent="JgftFQ6_yCxk7IAfxNmy-195" edge="1">
          <mxGeometry width="50" height="50" relative="1" as="geometry">
            <mxPoint x="470" y="160.00000000000006" as="sourcePoint" />
            <mxPoint x="580" y="160.00000000000006" as="targetPoint" />
          </mxGeometry>
        </mxCell>
        <mxCell id="JgftFQ6_yCxk7IAfxNmy-32" value="" style="endArrow=none;html=1;" parent="JgftFQ6_yCxk7IAfxNmy-195" edge="1">
          <mxGeometry width="50" height="50" relative="1" as="geometry">
            <mxPoint x="470" y="180.00000000000006" as="sourcePoint" />
            <mxPoint x="580" y="180.00000000000006" as="targetPoint" />
          </mxGeometry>
        </mxCell>
        <mxCell id="JgftFQ6_yCxk7IAfxNmy-33" value="" style="endArrow=none;html=1;" parent="JgftFQ6_yCxk7IAfxNmy-195" edge="1">
          <mxGeometry width="50" height="50" relative="1" as="geometry">
            <mxPoint x="470" y="200.00000000000006" as="sourcePoint" />
            <mxPoint x="580" y="200.00000000000006" as="targetPoint" />
          </mxGeometry>
        </mxCell>
        <mxCell id="JgftFQ6_yCxk7IAfxNmy-34" value="" style="endArrow=none;html=1;" parent="JgftFQ6_yCxk7IAfxNmy-195" edge="1">
          <mxGeometry width="50" height="50" relative="1" as="geometry">
            <mxPoint x="470" y="220" as="sourcePoint" />
            <mxPoint x="580" y="220" as="targetPoint" />
          </mxGeometry>
        </mxCell>
        <mxCell id="JgftFQ6_yCxk7IAfxNmy-35" value="" style="endArrow=none;html=1;" parent="JgftFQ6_yCxk7IAfxNmy-195" edge="1">
          <mxGeometry width="50" height="50" relative="1" as="geometry">
            <mxPoint x="470" y="240.45999999999998" as="sourcePoint" />
            <mxPoint x="580" y="240.45999999999998" as="targetPoint" />
          </mxGeometry>
        </mxCell>
        <mxCell id="JgftFQ6_yCxk7IAfxNmy-36" value="" style="endArrow=none;html=1;" parent="JgftFQ6_yCxk7IAfxNmy-195" edge="1">
          <mxGeometry width="50" height="50" relative="1" as="geometry">
            <mxPoint x="470" y="260.46" as="sourcePoint" />
            <mxPoint x="580" y="260.46" as="targetPoint" />
          </mxGeometry>
        </mxCell>
        <mxCell id="JgftFQ6_yCxk7IAfxNmy-37" value="" style="endArrow=none;html=1;" parent="JgftFQ6_yCxk7IAfxNmy-195" edge="1">
          <mxGeometry width="50" height="50" relative="1" as="geometry">
            <mxPoint x="470" y="280.46" as="sourcePoint" />
            <mxPoint x="580" y="280.46" as="targetPoint" />
          </mxGeometry>
        </mxCell>
        <mxCell id="JgftFQ6_yCxk7IAfxNmy-38" value="" style="endArrow=none;html=1;" parent="JgftFQ6_yCxk7IAfxNmy-195" edge="1">
          <mxGeometry width="50" height="50" relative="1" as="geometry">
            <mxPoint x="470" y="300" as="sourcePoint" />
            <mxPoint x="580" y="300" as="targetPoint" />
          </mxGeometry>
        </mxCell>
        <mxCell id="JgftFQ6_yCxk7IAfxNmy-39" value="" style="endArrow=none;html=1;" parent="JgftFQ6_yCxk7IAfxNmy-195" edge="1">
          <mxGeometry width="50" height="50" relative="1" as="geometry">
            <mxPoint x="470" y="320" as="sourcePoint" />
            <mxPoint x="580" y="320" as="targetPoint" />
          </mxGeometry>
        </mxCell>
        <mxCell id="JgftFQ6_yCxk7IAfxNmy-40" value="" style="endArrow=none;html=1;" parent="JgftFQ6_yCxk7IAfxNmy-195" edge="1">
          <mxGeometry width="50" height="50" relative="1" as="geometry">
            <mxPoint x="470" y="340" as="sourcePoint" />
            <mxPoint x="580" y="340" as="targetPoint" />
          </mxGeometry>
        </mxCell>
        <mxCell id="JgftFQ6_yCxk7IAfxNmy-41" value="" style="endArrow=none;html=1;" parent="JgftFQ6_yCxk7IAfxNmy-195" edge="1">
          <mxGeometry width="50" height="50" relative="1" as="geometry">
            <mxPoint x="470" y="360" as="sourcePoint" />
            <mxPoint x="580" y="360" as="targetPoint" />
          </mxGeometry>
        </mxCell>
        <mxCell id="JgftFQ6_yCxk7IAfxNmy-42" value="" style="endArrow=none;html=1;" parent="JgftFQ6_yCxk7IAfxNmy-195" edge="1">
          <mxGeometry width="50" height="50" relative="1" as="geometry">
            <mxPoint x="470" y="380" as="sourcePoint" />
            <mxPoint x="580" y="380" as="targetPoint" />
          </mxGeometry>
        </mxCell>
        <mxCell id="JgftFQ6_yCxk7IAfxNmy-43" value="" style="endArrow=none;html=1;" parent="JgftFQ6_yCxk7IAfxNmy-195" edge="1">
          <mxGeometry width="50" height="50" relative="1" as="geometry">
            <mxPoint x="470" y="400" as="sourcePoint" />
            <mxPoint x="580" y="400" as="targetPoint" />
          </mxGeometry>
        </mxCell>
        <mxCell id="JgftFQ6_yCxk7IAfxNmy-44" value="" style="endArrow=none;html=1;" parent="JgftFQ6_yCxk7IAfxNmy-195" edge="1">
          <mxGeometry width="50" height="50" relative="1" as="geometry">
            <mxPoint x="470" y="420" as="sourcePoint" />
            <mxPoint x="580" y="420" as="targetPoint" />
          </mxGeometry>
        </mxCell>
        <mxCell id="JgftFQ6_yCxk7IAfxNmy-45" value="" style="endArrow=none;html=1;" parent="JgftFQ6_yCxk7IAfxNmy-195" edge="1">
          <mxGeometry width="50" height="50" relative="1" as="geometry">
            <mxPoint x="470" y="440" as="sourcePoint" />
            <mxPoint x="580" y="440" as="targetPoint" />
          </mxGeometry>
        </mxCell>
        <mxCell id="JgftFQ6_yCxk7IAfxNmy-47" value="CW2" style="rounded=0;whiteSpace=wrap;html=1;rotation=90;fontSize=20;" parent="JgftFQ6_yCxk7IAfxNmy-195" vertex="1">
          <mxGeometry x="382.81999999999994" y="302.12" width="429.87" height="35.63" as="geometry" />
        </mxCell>
        <mxCell id="JgftFQ6_yCxk7IAfxNmy-48" value="" style="endArrow=none;html=1;" parent="JgftFQ6_yCxk7IAfxNmy-195" edge="1">
          <mxGeometry width="50" height="50" relative="1" as="geometry">
            <mxPoint x="616" y="120" as="sourcePoint" />
            <mxPoint x="726" y="120" as="targetPoint" />
          </mxGeometry>
        </mxCell>
        <mxCell id="JgftFQ6_yCxk7IAfxNmy-49" value="" style="endArrow=none;html=1;" parent="JgftFQ6_yCxk7IAfxNmy-195" edge="1">
          <mxGeometry width="50" height="50" relative="1" as="geometry">
            <mxPoint x="616" y="140" as="sourcePoint" />
            <mxPoint x="726" y="140" as="targetPoint" />
          </mxGeometry>
        </mxCell>
        <mxCell id="JgftFQ6_yCxk7IAfxNmy-50" value="" style="endArrow=none;html=1;" parent="JgftFQ6_yCxk7IAfxNmy-195" edge="1">
          <mxGeometry width="50" height="50" relative="1" as="geometry">
            <mxPoint x="616" y="160" as="sourcePoint" />
            <mxPoint x="726" y="160" as="targetPoint" />
          </mxGeometry>
        </mxCell>
        <mxCell id="JgftFQ6_yCxk7IAfxNmy-51" value="" style="endArrow=none;html=1;" parent="JgftFQ6_yCxk7IAfxNmy-195" edge="1">
          <mxGeometry width="50" height="50" relative="1" as="geometry">
            <mxPoint x="616" y="180" as="sourcePoint" />
            <mxPoint x="726" y="180" as="targetPoint" />
          </mxGeometry>
        </mxCell>
        <mxCell id="JgftFQ6_yCxk7IAfxNmy-52" value="" style="endArrow=none;html=1;" parent="JgftFQ6_yCxk7IAfxNmy-195" edge="1">
          <mxGeometry width="50" height="50" relative="1" as="geometry">
            <mxPoint x="616" y="200" as="sourcePoint" />
            <mxPoint x="726" y="200" as="targetPoint" />
          </mxGeometry>
        </mxCell>
        <mxCell id="JgftFQ6_yCxk7IAfxNmy-53" value="" style="endArrow=none;html=1;" parent="JgftFQ6_yCxk7IAfxNmy-195" edge="1">
          <mxGeometry width="50" height="50" relative="1" as="geometry">
            <mxPoint x="616" y="219.9999999999999" as="sourcePoint" />
            <mxPoint x="726" y="219.9999999999999" as="targetPoint" />
          </mxGeometry>
        </mxCell>
        <mxCell id="JgftFQ6_yCxk7IAfxNmy-54" value="" style="endArrow=none;html=1;" parent="JgftFQ6_yCxk7IAfxNmy-195" edge="1">
          <mxGeometry width="50" height="50" relative="1" as="geometry">
            <mxPoint x="616" y="240.46000000000004" as="sourcePoint" />
            <mxPoint x="726" y="240.46000000000004" as="targetPoint" />
          </mxGeometry>
        </mxCell>
        <mxCell id="JgftFQ6_yCxk7IAfxNmy-55" value="" style="endArrow=none;html=1;" parent="JgftFQ6_yCxk7IAfxNmy-195" edge="1">
          <mxGeometry width="50" height="50" relative="1" as="geometry">
            <mxPoint x="616" y="260.46000000000004" as="sourcePoint" />
            <mxPoint x="726" y="260.46000000000004" as="targetPoint" />
          </mxGeometry>
        </mxCell>
        <mxCell id="JgftFQ6_yCxk7IAfxNmy-56" value="" style="endArrow=none;html=1;" parent="JgftFQ6_yCxk7IAfxNmy-195" edge="1">
          <mxGeometry width="50" height="50" relative="1" as="geometry">
            <mxPoint x="616" y="280.46000000000004" as="sourcePoint" />
            <mxPoint x="726" y="280.46000000000004" as="targetPoint" />
          </mxGeometry>
        </mxCell>
        <mxCell id="JgftFQ6_yCxk7IAfxNmy-57" value="" style="endArrow=none;html=1;" parent="JgftFQ6_yCxk7IAfxNmy-195" edge="1">
          <mxGeometry width="50" height="50" relative="1" as="geometry">
            <mxPoint x="616" y="299.9999999999999" as="sourcePoint" />
            <mxPoint x="726" y="299.9999999999999" as="targetPoint" />
          </mxGeometry>
        </mxCell>
        <mxCell id="JgftFQ6_yCxk7IAfxNmy-58" value="" style="endArrow=none;html=1;" parent="JgftFQ6_yCxk7IAfxNmy-195" edge="1">
          <mxGeometry width="50" height="50" relative="1" as="geometry">
            <mxPoint x="616" y="319.9999999999999" as="sourcePoint" />
            <mxPoint x="726" y="319.9999999999999" as="targetPoint" />
          </mxGeometry>
        </mxCell>
        <mxCell id="JgftFQ6_yCxk7IAfxNmy-59" value="" style="endArrow=none;html=1;" parent="JgftFQ6_yCxk7IAfxNmy-195" edge="1">
          <mxGeometry width="50" height="50" relative="1" as="geometry">
            <mxPoint x="616" y="339.9999999999999" as="sourcePoint" />
            <mxPoint x="726" y="339.9999999999999" as="targetPoint" />
          </mxGeometry>
        </mxCell>
        <mxCell id="JgftFQ6_yCxk7IAfxNmy-60" value="CW3" style="rounded=0;whiteSpace=wrap;html=1;rotation=90;fontSize=20;" parent="JgftFQ6_yCxk7IAfxNmy-195" vertex="1">
          <mxGeometry x="577.82" y="253.13" width="331.87" height="35.63" as="geometry" />
        </mxCell>
        <mxCell id="JgftFQ6_yCxk7IAfxNmy-68" value="CW4" style="rounded=0;whiteSpace=wrap;html=1;rotation=90;fontSize=20;" parent="JgftFQ6_yCxk7IAfxNmy-195" vertex="1">
          <mxGeometry x="831.75" y="183.44" width="192.5" height="35.63" as="geometry" />
        </mxCell>
        <mxCell id="JgftFQ6_yCxk7IAfxNmy-69" value="" style="endArrow=none;html=1;" parent="JgftFQ6_yCxk7IAfxNmy-195" edge="1">
          <mxGeometry width="50" height="50" relative="1" as="geometry">
            <mxPoint x="324" y="139" as="sourcePoint" />
            <mxPoint x="434" y="139" as="targetPoint" />
          </mxGeometry>
        </mxCell>
        <mxCell id="JgftFQ6_yCxk7IAfxNmy-70" value="" style="endArrow=none;html=1;" parent="JgftFQ6_yCxk7IAfxNmy-195" edge="1">
          <mxGeometry width="50" height="50" relative="1" as="geometry">
            <mxPoint x="324" y="159" as="sourcePoint" />
            <mxPoint x="434" y="159" as="targetPoint" />
          </mxGeometry>
        </mxCell>
        <mxCell id="JgftFQ6_yCxk7IAfxNmy-71" value="" style="endArrow=none;html=1;" parent="JgftFQ6_yCxk7IAfxNmy-195" edge="1">
          <mxGeometry width="50" height="50" relative="1" as="geometry">
            <mxPoint x="324" y="179" as="sourcePoint" />
            <mxPoint x="434" y="179" as="targetPoint" />
          </mxGeometry>
        </mxCell>
        <mxCell id="JgftFQ6_yCxk7IAfxNmy-72" value="" style="endArrow=none;html=1;" parent="JgftFQ6_yCxk7IAfxNmy-195" edge="1">
          <mxGeometry width="50" height="50" relative="1" as="geometry">
            <mxPoint x="324" y="199" as="sourcePoint" />
            <mxPoint x="434" y="199" as="targetPoint" />
          </mxGeometry>
        </mxCell>
        <mxCell id="JgftFQ6_yCxk7IAfxNmy-73" value="" style="endArrow=none;html=1;" parent="JgftFQ6_yCxk7IAfxNmy-195" edge="1">
          <mxGeometry width="50" height="50" relative="1" as="geometry">
            <mxPoint x="324" y="219" as="sourcePoint" />
            <mxPoint x="434" y="219" as="targetPoint" />
          </mxGeometry>
        </mxCell>
        <mxCell id="JgftFQ6_yCxk7IAfxNmy-74" value="" style="endArrow=none;html=1;" parent="JgftFQ6_yCxk7IAfxNmy-195" edge="1">
          <mxGeometry width="50" height="50" relative="1" as="geometry">
            <mxPoint x="324" y="239" as="sourcePoint" />
            <mxPoint x="434" y="239" as="targetPoint" />
          </mxGeometry>
        </mxCell>
        <mxCell id="JgftFQ6_yCxk7IAfxNmy-75" value="" style="endArrow=none;html=1;" parent="JgftFQ6_yCxk7IAfxNmy-195" edge="1">
          <mxGeometry width="50" height="50" relative="1" as="geometry">
            <mxPoint x="324" y="259.46000000000004" as="sourcePoint" />
            <mxPoint x="434" y="259.46000000000004" as="targetPoint" />
          </mxGeometry>
        </mxCell>
        <mxCell id="JgftFQ6_yCxk7IAfxNmy-76" value="" style="endArrow=none;html=1;" parent="JgftFQ6_yCxk7IAfxNmy-195" edge="1">
          <mxGeometry width="50" height="50" relative="1" as="geometry">
            <mxPoint x="324" y="279.46000000000004" as="sourcePoint" />
            <mxPoint x="434" y="279.46000000000004" as="targetPoint" />
          </mxGeometry>
        </mxCell>
        <mxCell id="JgftFQ6_yCxk7IAfxNmy-77" value="" style="endArrow=none;html=1;" parent="JgftFQ6_yCxk7IAfxNmy-195" edge="1">
          <mxGeometry width="50" height="50" relative="1" as="geometry">
            <mxPoint x="324" y="299.46000000000004" as="sourcePoint" />
            <mxPoint x="434" y="299.46000000000004" as="targetPoint" />
          </mxGeometry>
        </mxCell>
        <mxCell id="JgftFQ6_yCxk7IAfxNmy-78" value="" style="endArrow=none;html=1;" parent="JgftFQ6_yCxk7IAfxNmy-195" edge="1">
          <mxGeometry width="50" height="50" relative="1" as="geometry">
            <mxPoint x="324" y="319" as="sourcePoint" />
            <mxPoint x="434" y="319" as="targetPoint" />
          </mxGeometry>
        </mxCell>
        <mxCell id="JgftFQ6_yCxk7IAfxNmy-79" value="" style="endArrow=none;html=1;" parent="JgftFQ6_yCxk7IAfxNmy-195" edge="1">
          <mxGeometry width="50" height="50" relative="1" as="geometry">
            <mxPoint x="324" y="339" as="sourcePoint" />
            <mxPoint x="434" y="339" as="targetPoint" />
          </mxGeometry>
        </mxCell>
        <mxCell id="JgftFQ6_yCxk7IAfxNmy-80" value="" style="endArrow=none;html=1;" parent="JgftFQ6_yCxk7IAfxNmy-195" edge="1">
          <mxGeometry width="50" height="50" relative="1" as="geometry">
            <mxPoint x="324" y="359" as="sourcePoint" />
            <mxPoint x="434" y="359" as="targetPoint" />
          </mxGeometry>
        </mxCell>
        <mxCell id="JgftFQ6_yCxk7IAfxNmy-81" value="" style="endArrow=none;html=1;" parent="JgftFQ6_yCxk7IAfxNmy-195" edge="1">
          <mxGeometry width="50" height="50" relative="1" as="geometry">
            <mxPoint x="324" y="379" as="sourcePoint" />
            <mxPoint x="434" y="379" as="targetPoint" />
          </mxGeometry>
        </mxCell>
        <mxCell id="JgftFQ6_yCxk7IAfxNmy-82" value="" style="endArrow=none;html=1;" parent="JgftFQ6_yCxk7IAfxNmy-195" edge="1">
          <mxGeometry width="50" height="50" relative="1" as="geometry">
            <mxPoint x="324" y="399" as="sourcePoint" />
            <mxPoint x="434" y="399" as="targetPoint" />
          </mxGeometry>
        </mxCell>
        <mxCell id="JgftFQ6_yCxk7IAfxNmy-83" value="" style="endArrow=none;html=1;" parent="JgftFQ6_yCxk7IAfxNmy-195" edge="1">
          <mxGeometry width="50" height="50" relative="1" as="geometry">
            <mxPoint x="324" y="419" as="sourcePoint" />
            <mxPoint x="434" y="419" as="targetPoint" />
          </mxGeometry>
        </mxCell>
        <mxCell id="JgftFQ6_yCxk7IAfxNmy-84" value="" style="endArrow=none;html=1;" parent="JgftFQ6_yCxk7IAfxNmy-195" edge="1">
          <mxGeometry width="50" height="50" relative="1" as="geometry">
            <mxPoint x="324" y="439" as="sourcePoint" />
            <mxPoint x="434" y="439" as="targetPoint" />
          </mxGeometry>
        </mxCell>
        <mxCell id="JgftFQ6_yCxk7IAfxNmy-85" value="" style="endArrow=none;html=1;" parent="JgftFQ6_yCxk7IAfxNmy-195" edge="1">
          <mxGeometry width="50" height="50" relative="1" as="geometry">
            <mxPoint x="324" y="459" as="sourcePoint" />
            <mxPoint x="434" y="459" as="targetPoint" />
          </mxGeometry>
        </mxCell>
        <mxCell id="JgftFQ6_yCxk7IAfxNmy-86" value="" style="endArrow=none;html=1;" parent="JgftFQ6_yCxk7IAfxNmy-195" edge="1">
          <mxGeometry width="50" height="50" relative="1" as="geometry">
            <mxPoint x="324" y="480" as="sourcePoint" />
            <mxPoint x="434" y="480" as="targetPoint" />
          </mxGeometry>
        </mxCell>
        <mxCell id="JgftFQ6_yCxk7IAfxNmy-87" value="" style="endArrow=none;html=1;" parent="JgftFQ6_yCxk7IAfxNmy-195" edge="1">
          <mxGeometry width="50" height="50" relative="1" as="geometry">
            <mxPoint x="324" y="500" as="sourcePoint" />
            <mxPoint x="434" y="500" as="targetPoint" />
          </mxGeometry>
        </mxCell>
        <mxCell id="JgftFQ6_yCxk7IAfxNmy-88" value="" style="endArrow=none;html=1;" parent="JgftFQ6_yCxk7IAfxNmy-195" edge="1">
          <mxGeometry width="50" height="50" relative="1" as="geometry">
            <mxPoint x="324" y="520" as="sourcePoint" />
            <mxPoint x="434" y="520" as="targetPoint" />
          </mxGeometry>
        </mxCell>
        <mxCell id="JgftFQ6_yCxk7IAfxNmy-89" value="" style="endArrow=none;html=1;" parent="JgftFQ6_yCxk7IAfxNmy-195" edge="1">
          <mxGeometry width="50" height="50" relative="1" as="geometry">
            <mxPoint x="324" y="540" as="sourcePoint" />
            <mxPoint x="434" y="540" as="targetPoint" />
          </mxGeometry>
        </mxCell>
        <mxCell id="JgftFQ6_yCxk7IAfxNmy-90" value="" style="endArrow=none;html=1;" parent="JgftFQ6_yCxk7IAfxNmy-195" edge="1">
          <mxGeometry width="50" height="50" relative="1" as="geometry">
            <mxPoint x="470" y="460" as="sourcePoint" />
            <mxPoint x="580" y="460" as="targetPoint" />
          </mxGeometry>
        </mxCell>
        <mxCell id="JgftFQ6_yCxk7IAfxNmy-91" value="" style="endArrow=none;html=1;" parent="JgftFQ6_yCxk7IAfxNmy-195" edge="1">
          <mxGeometry width="50" height="50" relative="1" as="geometry">
            <mxPoint x="470" y="480" as="sourcePoint" />
            <mxPoint x="580" y="480" as="targetPoint" />
          </mxGeometry>
        </mxCell>
        <mxCell id="JgftFQ6_yCxk7IAfxNmy-92" value="" style="endArrow=none;html=1;" parent="JgftFQ6_yCxk7IAfxNmy-195" edge="1">
          <mxGeometry width="50" height="50" relative="1" as="geometry">
            <mxPoint x="470" y="500" as="sourcePoint" />
            <mxPoint x="580" y="500" as="targetPoint" />
          </mxGeometry>
        </mxCell>
        <mxCell id="JgftFQ6_yCxk7IAfxNmy-93" value="" style="endArrow=none;html=1;" parent="JgftFQ6_yCxk7IAfxNmy-195" edge="1">
          <mxGeometry width="50" height="50" relative="1" as="geometry">
            <mxPoint x="470" y="520" as="sourcePoint" />
            <mxPoint x="580" y="520" as="targetPoint" />
          </mxGeometry>
        </mxCell>
        <mxCell id="JgftFQ6_yCxk7IAfxNmy-94" value="" style="endArrow=none;html=1;" parent="JgftFQ6_yCxk7IAfxNmy-195" edge="1">
          <mxGeometry width="50" height="50" relative="1" as="geometry">
            <mxPoint x="616" y="360" as="sourcePoint" />
            <mxPoint x="726" y="360" as="targetPoint" />
          </mxGeometry>
        </mxCell>
        <mxCell id="JgftFQ6_yCxk7IAfxNmy-95" value="" style="endArrow=none;html=1;" parent="JgftFQ6_yCxk7IAfxNmy-195" edge="1">
          <mxGeometry width="50" height="50" relative="1" as="geometry">
            <mxPoint x="616" y="380" as="sourcePoint" />
            <mxPoint x="726" y="380" as="targetPoint" />
          </mxGeometry>
        </mxCell>
        <mxCell id="JgftFQ6_yCxk7IAfxNmy-96" value="" style="endArrow=none;html=1;" parent="JgftFQ6_yCxk7IAfxNmy-195" edge="1">
          <mxGeometry width="50" height="50" relative="1" as="geometry">
            <mxPoint x="616" y="400" as="sourcePoint" />
            <mxPoint x="726" y="400" as="targetPoint" />
          </mxGeometry>
        </mxCell>
        <mxCell id="JgftFQ6_yCxk7IAfxNmy-97" value="" style="endArrow=none;html=1;" parent="JgftFQ6_yCxk7IAfxNmy-195" edge="1">
          <mxGeometry width="50" height="50" relative="1" as="geometry">
            <mxPoint x="616" y="420" as="sourcePoint" />
            <mxPoint x="726" y="420" as="targetPoint" />
          </mxGeometry>
        </mxCell>
        <mxCell id="JgftFQ6_yCxk7IAfxNmy-102" value="CW5" style="rounded=0;whiteSpace=wrap;html=1;rotation=90;fontSize=20;" parent="JgftFQ6_yCxk7IAfxNmy-195" vertex="1">
          <mxGeometry x="1053.5" y="130" width="76" height="35.63" as="geometry" />
        </mxCell>
        <mxCell id="JgftFQ6_yCxk7IAfxNmy-108" value="" style="endArrow=none;html=1;" parent="JgftFQ6_yCxk7IAfxNmy-195" edge="1">
          <mxGeometry width="50" height="50" relative="1" as="geometry">
            <mxPoint x="470.81999999999994" y="540" as="sourcePoint" />
            <mxPoint x="550" y="540" as="targetPoint" />
          </mxGeometry>
        </mxCell>
        <mxCell id="JgftFQ6_yCxk7IAfxNmy-109" value="" style="endArrow=none;html=1;" parent="JgftFQ6_yCxk7IAfxNmy-195" edge="1">
          <mxGeometry width="50" height="50" relative="1" as="geometry">
            <mxPoint x="616" y="440" as="sourcePoint" />
            <mxPoint x="710" y="440" as="targetPoint" />
          </mxGeometry>
        </mxCell>
        <mxCell id="JgftFQ6_yCxk7IAfxNmy-110" value="" style="endArrow=none;html=1;" parent="JgftFQ6_yCxk7IAfxNmy-195" edge="1">
          <mxGeometry width="50" height="50" relative="1" as="geometry">
            <mxPoint x="616" y="460" as="sourcePoint" />
            <mxPoint x="690" y="460" as="targetPoint" />
          </mxGeometry>
        </mxCell>
        <mxCell id="JgftFQ6_yCxk7IAfxNmy-111" value="" style="endArrow=none;html=1;" parent="JgftFQ6_yCxk7IAfxNmy-195" edge="1">
          <mxGeometry width="50" height="50" relative="1" as="geometry">
            <mxPoint x="616" y="480" as="sourcePoint" />
            <mxPoint x="670" y="480" as="targetPoint" />
          </mxGeometry>
        </mxCell>
        <mxCell id="JgftFQ6_yCxk7IAfxNmy-112" value="" style="endArrow=none;html=1;" parent="JgftFQ6_yCxk7IAfxNmy-195" edge="1">
          <mxGeometry width="50" height="50" relative="1" as="geometry">
            <mxPoint x="616" y="500" as="sourcePoint" />
            <mxPoint x="650" y="500" as="targetPoint" />
          </mxGeometry>
        </mxCell>
        <mxCell id="JgftFQ6_yCxk7IAfxNmy-113" value="" style="endArrow=none;html=1;" parent="JgftFQ6_yCxk7IAfxNmy-195" edge="1">
          <mxGeometry width="50" height="50" relative="1" as="geometry">
            <mxPoint x="616" y="520" as="sourcePoint" />
            <mxPoint x="630" y="520" as="targetPoint" />
          </mxGeometry>
        </mxCell>
        <mxCell id="JgftFQ6_yCxk7IAfxNmy-127" value="" style="endArrow=none;html=1;" parent="JgftFQ6_yCxk7IAfxNmy-195" edge="1">
          <mxGeometry width="50" height="50" relative="1" as="geometry">
            <mxPoint x="760.5" y="300.1199999999999" as="sourcePoint" />
            <mxPoint x="891.5" y="300" as="targetPoint" />
          </mxGeometry>
        </mxCell>
        <mxCell id="JgftFQ6_yCxk7IAfxNmy-103" value="" style="endArrow=none;html=1;" parent="JgftFQ6_yCxk7IAfxNmy-195" edge="1">
          <mxGeometry width="50" height="50" relative="1" as="geometry">
            <mxPoint x="946" y="120" as="sourcePoint" />
            <mxPoint x="1073" y="120" as="targetPoint" />
          </mxGeometry>
        </mxCell>
        <mxCell id="JgftFQ6_yCxk7IAfxNmy-104" value="" style="endArrow=none;html=1;" parent="JgftFQ6_yCxk7IAfxNmy-195" edge="1">
          <mxGeometry width="50" height="50" relative="1" as="geometry">
            <mxPoint x="946" y="140" as="sourcePoint" />
            <mxPoint x="1073" y="140" as="targetPoint" />
          </mxGeometry>
        </mxCell>
        <mxCell id="JgftFQ6_yCxk7IAfxNmy-105" value="" style="endArrow=none;html=1;" parent="JgftFQ6_yCxk7IAfxNmy-195" edge="1">
          <mxGeometry width="50" height="50" relative="1" as="geometry">
            <mxPoint x="946" y="160" as="sourcePoint" />
            <mxPoint x="1073" y="160" as="targetPoint" />
          </mxGeometry>
        </mxCell>
        <mxCell id="JgftFQ6_yCxk7IAfxNmy-143" value="" style="endArrow=none;html=1;" parent="JgftFQ6_yCxk7IAfxNmy-195" edge="1">
          <mxGeometry width="50" height="50" relative="1" as="geometry">
            <mxPoint x="550" y="630" as="sourcePoint" />
            <mxPoint x="550" y="540" as="targetPoint" />
          </mxGeometry>
        </mxCell>
        <mxCell id="JgftFQ6_yCxk7IAfxNmy-198" value="" style="edgeLabel;html=1;align=center;verticalAlign=middle;resizable=0;points=[];fontSize=20;horizontal=0;labelPosition=center;verticalLabelPosition=middle;" parent="JgftFQ6_yCxk7IAfxNmy-143" vertex="1" connectable="0">
          <mxGeometry x="-0.8138" relative="1" as="geometry">
            <mxPoint y="4" as="offset" />
          </mxGeometry>
        </mxCell>
        <mxCell id="JgftFQ6_yCxk7IAfxNmy-144" value="" style="endArrow=none;html=1;" parent="JgftFQ6_yCxk7IAfxNmy-195" edge="1">
          <mxGeometry width="50" height="50" relative="1" as="geometry">
            <mxPoint x="630" y="630" as="sourcePoint" />
            <mxPoint x="630" y="520" as="targetPoint" />
          </mxGeometry>
        </mxCell>
        <mxCell id="JgftFQ6_yCxk7IAfxNmy-199" value="" style="edgeLabel;html=1;align=center;verticalAlign=middle;resizable=0;points=[];fontSize=20;horizontal=0;" parent="JgftFQ6_yCxk7IAfxNmy-144" vertex="1" connectable="0">
          <mxGeometry x="-0.7975" y="-1" relative="1" as="geometry">
            <mxPoint x="-1" y="6" as="offset" />
          </mxGeometry>
        </mxCell>
        <mxCell id="JgftFQ6_yCxk7IAfxNmy-145" value="" style="endArrow=none;html=1;" parent="JgftFQ6_yCxk7IAfxNmy-195" edge="1">
          <mxGeometry width="50" height="50" relative="1" as="geometry">
            <mxPoint x="650" y="630" as="sourcePoint" />
            <mxPoint x="650" y="500" as="targetPoint" />
          </mxGeometry>
        </mxCell>
        <mxCell id="JgftFQ6_yCxk7IAfxNmy-200" value="" style="edgeLabel;html=1;align=center;verticalAlign=middle;resizable=0;points=[];fontSize=20;" parent="JgftFQ6_yCxk7IAfxNmy-145" vertex="1" connectable="0">
          <mxGeometry x="-0.8499" y="-1" relative="1" as="geometry">
            <mxPoint as="offset" />
          </mxGeometry>
        </mxCell>
        <mxCell id="JgftFQ6_yCxk7IAfxNmy-146" value="" style="endArrow=none;html=1;" parent="JgftFQ6_yCxk7IAfxNmy-195" edge="1">
          <mxGeometry width="50" height="50" relative="1" as="geometry">
            <mxPoint x="670" y="630" as="sourcePoint" />
            <mxPoint x="670" y="480" as="targetPoint" />
          </mxGeometry>
        </mxCell>
        <mxCell id="JgftFQ6_yCxk7IAfxNmy-147" value="" style="endArrow=none;html=1;" parent="JgftFQ6_yCxk7IAfxNmy-195" edge="1">
          <mxGeometry width="50" height="50" relative="1" as="geometry">
            <mxPoint x="690" y="630" as="sourcePoint" />
            <mxPoint x="690" y="460" as="targetPoint" />
          </mxGeometry>
        </mxCell>
        <mxCell id="JgftFQ6_yCxk7IAfxNmy-148" value="" style="endArrow=none;html=1;" parent="JgftFQ6_yCxk7IAfxNmy-195" edge="1">
          <mxGeometry width="50" height="50" relative="1" as="geometry">
            <mxPoint x="710" y="630" as="sourcePoint" />
            <mxPoint x="710" y="440" as="targetPoint" />
          </mxGeometry>
        </mxCell>
        <mxCell id="JgftFQ6_yCxk7IAfxNmy-149" value="" style="endArrow=none;html=1;" parent="JgftFQ6_yCxk7IAfxNmy-195" edge="1">
          <mxGeometry width="50" height="50" relative="1" as="geometry">
            <mxPoint x="815" y="630" as="sourcePoint" />
            <mxPoint x="814.69" y="378" as="targetPoint" />
          </mxGeometry>
        </mxCell>
        <mxCell id="JgftFQ6_yCxk7IAfxNmy-150" value="" style="endArrow=none;html=1;" parent="JgftFQ6_yCxk7IAfxNmy-195" edge="1">
          <mxGeometry width="50" height="50" relative="1" as="geometry">
            <mxPoint x="775" y="630" as="sourcePoint" />
            <mxPoint x="775" y="417.75" as="targetPoint" />
          </mxGeometry>
        </mxCell>
        <mxCell id="JgftFQ6_yCxk7IAfxNmy-122" value="" style="endArrow=none;html=1;" parent="JgftFQ6_yCxk7IAfxNmy-195" edge="1">
          <mxGeometry width="50" height="50" relative="1" as="geometry">
            <mxPoint x="761" y="337.75" as="sourcePoint" />
            <mxPoint x="855" y="337.75" as="targetPoint" />
          </mxGeometry>
        </mxCell>
        <mxCell id="JgftFQ6_yCxk7IAfxNmy-123" value="" style="endArrow=none;html=1;" parent="JgftFQ6_yCxk7IAfxNmy-195" edge="1">
          <mxGeometry width="50" height="50" relative="1" as="geometry">
            <mxPoint x="761" y="357.75" as="sourcePoint" />
            <mxPoint x="835" y="357.75" as="targetPoint" />
          </mxGeometry>
        </mxCell>
        <mxCell id="JgftFQ6_yCxk7IAfxNmy-124" value="" style="endArrow=none;html=1;" parent="JgftFQ6_yCxk7IAfxNmy-195" edge="1">
          <mxGeometry width="50" height="50" relative="1" as="geometry">
            <mxPoint x="761" y="377.75" as="sourcePoint" />
            <mxPoint x="815" y="377.75" as="targetPoint" />
          </mxGeometry>
        </mxCell>
        <mxCell id="JgftFQ6_yCxk7IAfxNmy-125" value="" style="endArrow=none;html=1;" parent="JgftFQ6_yCxk7IAfxNmy-195" edge="1">
          <mxGeometry width="50" height="50" relative="1" as="geometry">
            <mxPoint x="761" y="397.75" as="sourcePoint" />
            <mxPoint x="795" y="397.75" as="targetPoint" />
          </mxGeometry>
        </mxCell>
        <mxCell id="JgftFQ6_yCxk7IAfxNmy-126" value="" style="endArrow=none;html=1;" parent="JgftFQ6_yCxk7IAfxNmy-195" edge="1">
          <mxGeometry width="50" height="50" relative="1" as="geometry">
            <mxPoint x="761" y="417.75" as="sourcePoint" />
            <mxPoint x="775" y="417.75" as="targetPoint" />
          </mxGeometry>
        </mxCell>
        <mxCell id="JgftFQ6_yCxk7IAfxNmy-128" value="" style="endArrow=none;html=1;" parent="JgftFQ6_yCxk7IAfxNmy-195" edge="1">
          <mxGeometry width="50" height="50" relative="1" as="geometry">
            <mxPoint x="761.5" y="320.1199999999999" as="sourcePoint" />
            <mxPoint x="871.5" y="320" as="targetPoint" />
          </mxGeometry>
        </mxCell>
        <mxCell id="JgftFQ6_yCxk7IAfxNmy-151" value="" style="endArrow=none;html=1;" parent="JgftFQ6_yCxk7IAfxNmy-195" edge="1">
          <mxGeometry width="50" height="50" relative="1" as="geometry">
            <mxPoint x="795" y="630" as="sourcePoint" />
            <mxPoint x="795" y="398" as="targetPoint" />
          </mxGeometry>
        </mxCell>
        <mxCell id="JgftFQ6_yCxk7IAfxNmy-100" value="" style="endArrow=none;html=1;" parent="JgftFQ6_yCxk7IAfxNmy-195" edge="1">
          <mxGeometry width="50" height="50" relative="1" as="geometry">
            <mxPoint x="760" y="260.42999999999984" as="sourcePoint" />
            <mxPoint x="909.6396396396397" y="260.42999999999984" as="targetPoint" />
          </mxGeometry>
        </mxCell>
        <mxCell id="JgftFQ6_yCxk7IAfxNmy-101" value="" style="endArrow=none;html=1;" parent="JgftFQ6_yCxk7IAfxNmy-195" edge="1">
          <mxGeometry width="50" height="50" relative="1" as="geometry">
            <mxPoint x="760" y="280.89" as="sourcePoint" />
            <mxPoint x="909.6396396396397" y="280.89" as="targetPoint" />
          </mxGeometry>
        </mxCell>
        <mxCell id="JgftFQ6_yCxk7IAfxNmy-61" value="" style="endArrow=none;html=1;" parent="JgftFQ6_yCxk7IAfxNmy-195" edge="1">
          <mxGeometry width="50" height="50" relative="1" as="geometry">
            <mxPoint x="761.3603603603603" y="120" as="sourcePoint" />
            <mxPoint x="911" y="120" as="targetPoint" />
          </mxGeometry>
        </mxCell>
        <mxCell id="JgftFQ6_yCxk7IAfxNmy-62" value="" style="endArrow=none;html=1;" parent="JgftFQ6_yCxk7IAfxNmy-195" edge="1">
          <mxGeometry width="50" height="50" relative="1" as="geometry">
            <mxPoint x="761.3603603603603" y="140" as="sourcePoint" />
            <mxPoint x="911" y="140" as="targetPoint" />
          </mxGeometry>
        </mxCell>
        <mxCell id="JgftFQ6_yCxk7IAfxNmy-63" value="" style="endArrow=none;html=1;" parent="JgftFQ6_yCxk7IAfxNmy-195" edge="1">
          <mxGeometry width="50" height="50" relative="1" as="geometry">
            <mxPoint x="761.3603603603603" y="159.99999999999994" as="sourcePoint" />
            <mxPoint x="911" y="159.99999999999994" as="targetPoint" />
          </mxGeometry>
        </mxCell>
        <mxCell id="JgftFQ6_yCxk7IAfxNmy-64" value="" style="endArrow=none;html=1;" parent="JgftFQ6_yCxk7IAfxNmy-195" edge="1">
          <mxGeometry width="50" height="50" relative="1" as="geometry">
            <mxPoint x="761.3603603603603" y="179.99999999999994" as="sourcePoint" />
            <mxPoint x="911" y="179.99999999999994" as="targetPoint" />
          </mxGeometry>
        </mxCell>
        <mxCell id="JgftFQ6_yCxk7IAfxNmy-65" value="" style="endArrow=none;html=1;" parent="JgftFQ6_yCxk7IAfxNmy-195" edge="1">
          <mxGeometry width="50" height="50" relative="1" as="geometry">
            <mxPoint x="761.3603603603603" y="199.99999999999994" as="sourcePoint" />
            <mxPoint x="911" y="199.99999999999994" as="targetPoint" />
          </mxGeometry>
        </mxCell>
        <mxCell id="JgftFQ6_yCxk7IAfxNmy-66" value="" style="endArrow=none;html=1;" parent="JgftFQ6_yCxk7IAfxNmy-195" edge="1">
          <mxGeometry width="50" height="50" relative="1" as="geometry">
            <mxPoint x="761.3603603603603" y="219.99999999999983" as="sourcePoint" />
            <mxPoint x="911" y="219.99999999999983" as="targetPoint" />
          </mxGeometry>
        </mxCell>
        <mxCell id="JgftFQ6_yCxk7IAfxNmy-67" value="" style="endArrow=none;html=1;" parent="JgftFQ6_yCxk7IAfxNmy-195" edge="1">
          <mxGeometry width="50" height="50" relative="1" as="geometry">
            <mxPoint x="761.3603603603603" y="240.45999999999998" as="sourcePoint" />
            <mxPoint x="911" y="240.45999999999998" as="targetPoint" />
          </mxGeometry>
        </mxCell>
        <mxCell id="JgftFQ6_yCxk7IAfxNmy-152" value="" style="endArrow=none;html=1;" parent="JgftFQ6_yCxk7IAfxNmy-195" edge="1">
          <mxGeometry width="50" height="50" relative="1" as="geometry">
            <mxPoint x="835" y="630" as="sourcePoint" />
            <mxPoint x="835" y="357.3000000000002" as="targetPoint" />
          </mxGeometry>
        </mxCell>
        <mxCell id="JgftFQ6_yCxk7IAfxNmy-153" value="" style="endArrow=none;html=1;" parent="JgftFQ6_yCxk7IAfxNmy-195" edge="1">
          <mxGeometry width="50" height="50" relative="1" as="geometry">
            <mxPoint x="855" y="630" as="sourcePoint" />
            <mxPoint x="855" y="338.0000000000001" as="targetPoint" />
          </mxGeometry>
        </mxCell>
        <mxCell id="JgftFQ6_yCxk7IAfxNmy-154" value="" style="endArrow=none;html=1;" parent="JgftFQ6_yCxk7IAfxNmy-195" edge="1">
          <mxGeometry width="50" height="50" relative="1" as="geometry">
            <mxPoint x="872" y="630" as="sourcePoint" />
            <mxPoint x="872" y="320.0000000000001" as="targetPoint" />
          </mxGeometry>
        </mxCell>
        <mxCell id="JgftFQ6_yCxk7IAfxNmy-155" value="" style="endArrow=none;html=1;" parent="JgftFQ6_yCxk7IAfxNmy-195" edge="1">
          <mxGeometry width="50" height="50" relative="1" as="geometry">
            <mxPoint x="891" y="630" as="sourcePoint" />
            <mxPoint x="891" y="300.0000000000001" as="targetPoint" />
          </mxGeometry>
        </mxCell>
        <mxCell id="JgftFQ6_yCxk7IAfxNmy-157" value="" style="endArrow=none;html=1;" parent="JgftFQ6_yCxk7IAfxNmy-195" edge="1">
          <mxGeometry width="50" height="50" relative="1" as="geometry">
            <mxPoint x="1000" y="630" as="sourcePoint" />
            <mxPoint x="999.69" y="237.49" as="targetPoint" />
          </mxGeometry>
        </mxCell>
        <mxCell id="JgftFQ6_yCxk7IAfxNmy-158" value="" style="endArrow=none;html=1;" parent="JgftFQ6_yCxk7IAfxNmy-195" edge="1">
          <mxGeometry width="50" height="50" relative="1" as="geometry">
            <mxPoint x="960" y="630" as="sourcePoint" />
            <mxPoint x="960" y="277.23999999999995" as="targetPoint" />
          </mxGeometry>
        </mxCell>
        <mxCell id="JgftFQ6_yCxk7IAfxNmy-159" value="" style="endArrow=none;html=1;" parent="JgftFQ6_yCxk7IAfxNmy-195" edge="1">
          <mxGeometry width="50" height="50" relative="1" as="geometry">
            <mxPoint x="946" y="197.24" as="sourcePoint" />
            <mxPoint x="1040" y="197.24" as="targetPoint" />
          </mxGeometry>
        </mxCell>
        <mxCell id="JgftFQ6_yCxk7IAfxNmy-160" value="" style="endArrow=none;html=1;" parent="JgftFQ6_yCxk7IAfxNmy-195" edge="1">
          <mxGeometry width="50" height="50" relative="1" as="geometry">
            <mxPoint x="946" y="217.24" as="sourcePoint" />
            <mxPoint x="1020" y="217.24" as="targetPoint" />
          </mxGeometry>
        </mxCell>
        <mxCell id="JgftFQ6_yCxk7IAfxNmy-161" value="" style="endArrow=none;html=1;" parent="JgftFQ6_yCxk7IAfxNmy-195" edge="1">
          <mxGeometry width="50" height="50" relative="1" as="geometry">
            <mxPoint x="946" y="237.24" as="sourcePoint" />
            <mxPoint x="1000" y="237.24" as="targetPoint" />
          </mxGeometry>
        </mxCell>
        <mxCell id="JgftFQ6_yCxk7IAfxNmy-162" value="" style="endArrow=none;html=1;" parent="JgftFQ6_yCxk7IAfxNmy-195" edge="1">
          <mxGeometry width="50" height="50" relative="1" as="geometry">
            <mxPoint x="946" y="257.24" as="sourcePoint" />
            <mxPoint x="980" y="257.24" as="targetPoint" />
          </mxGeometry>
        </mxCell>
        <mxCell id="JgftFQ6_yCxk7IAfxNmy-163" value="" style="endArrow=none;html=1;" parent="JgftFQ6_yCxk7IAfxNmy-195" edge="1">
          <mxGeometry width="50" height="50" relative="1" as="geometry">
            <mxPoint x="946" y="277.23999999999995" as="sourcePoint" />
            <mxPoint x="960" y="277.23999999999995" as="targetPoint" />
          </mxGeometry>
        </mxCell>
        <mxCell id="JgftFQ6_yCxk7IAfxNmy-164" value="" style="endArrow=none;html=1;" parent="JgftFQ6_yCxk7IAfxNmy-195" edge="1">
          <mxGeometry width="50" height="50" relative="1" as="geometry">
            <mxPoint x="946.5" y="179.6099999999999" as="sourcePoint" />
            <mxPoint x="1056.5" y="179.49" as="targetPoint" />
          </mxGeometry>
        </mxCell>
        <mxCell id="JgftFQ6_yCxk7IAfxNmy-165" value="" style="endArrow=none;html=1;" parent="JgftFQ6_yCxk7IAfxNmy-195" edge="1">
          <mxGeometry width="50" height="50" relative="1" as="geometry">
            <mxPoint x="980" y="630" as="sourcePoint" />
            <mxPoint x="980" y="257.49" as="targetPoint" />
          </mxGeometry>
        </mxCell>
        <mxCell id="JgftFQ6_yCxk7IAfxNmy-166" value="" style="endArrow=none;html=1;" parent="JgftFQ6_yCxk7IAfxNmy-195" edge="1">
          <mxGeometry width="50" height="50" relative="1" as="geometry">
            <mxPoint x="1020" y="630" as="sourcePoint" />
            <mxPoint x="1020" y="216.7900000000002" as="targetPoint" />
          </mxGeometry>
        </mxCell>
        <mxCell id="JgftFQ6_yCxk7IAfxNmy-167" value="" style="endArrow=none;html=1;" parent="JgftFQ6_yCxk7IAfxNmy-195" edge="1">
          <mxGeometry width="50" height="50" relative="1" as="geometry">
            <mxPoint x="1040" y="630" as="sourcePoint" />
            <mxPoint x="1040" y="197.49" as="targetPoint" />
          </mxGeometry>
        </mxCell>
        <mxCell id="JgftFQ6_yCxk7IAfxNmy-168" value="" style="endArrow=none;html=1;" parent="JgftFQ6_yCxk7IAfxNmy-195" edge="1">
          <mxGeometry width="50" height="50" relative="1" as="geometry">
            <mxPoint x="1057" y="630" as="sourcePoint" />
            <mxPoint x="1057" y="179.49" as="targetPoint" />
          </mxGeometry>
        </mxCell>
        <mxCell id="JgftFQ6_yCxk7IAfxNmy-170" value="" style="endArrow=none;html=1;" parent="JgftFQ6_yCxk7IAfxNmy-195" edge="1">
          <mxGeometry width="50" height="50" relative="1" as="geometry">
            <mxPoint x="1164" y="630" as="sourcePoint" />
            <mxPoint x="1163.69" y="120.25" as="targetPoint" />
          </mxGeometry>
        </mxCell>
        <mxCell id="JgftFQ6_yCxk7IAfxNmy-171" value="" style="endArrow=none;html=1;" parent="JgftFQ6_yCxk7IAfxNmy-195" edge="1">
          <mxGeometry width="50" height="50" relative="1" as="geometry">
            <mxPoint x="1124" y="630" as="sourcePoint" />
            <mxPoint x="1124" y="160" as="targetPoint" />
          </mxGeometry>
        </mxCell>
        <mxCell id="JgftFQ6_yCxk7IAfxNmy-172" value="" style="endArrow=none;html=1;" parent="JgftFQ6_yCxk7IAfxNmy-195" edge="1">
          <mxGeometry width="50" height="50" relative="1" as="geometry">
            <mxPoint x="1110" y="120" as="sourcePoint" />
            <mxPoint x="1164" y="120" as="targetPoint" />
          </mxGeometry>
        </mxCell>
        <mxCell id="JgftFQ6_yCxk7IAfxNmy-173" value="" style="endArrow=none;html=1;" parent="JgftFQ6_yCxk7IAfxNmy-195" edge="1">
          <mxGeometry width="50" height="50" relative="1" as="geometry">
            <mxPoint x="1110" y="140" as="sourcePoint" />
            <mxPoint x="1144" y="140" as="targetPoint" />
          </mxGeometry>
        </mxCell>
        <mxCell id="JgftFQ6_yCxk7IAfxNmy-174" value="" style="endArrow=none;html=1;" parent="JgftFQ6_yCxk7IAfxNmy-195" edge="1">
          <mxGeometry width="50" height="50" relative="1" as="geometry">
            <mxPoint x="1110" y="160" as="sourcePoint" />
            <mxPoint x="1124" y="160" as="targetPoint" />
          </mxGeometry>
        </mxCell>
        <mxCell id="JgftFQ6_yCxk7IAfxNmy-175" value="" style="endArrow=none;html=1;" parent="JgftFQ6_yCxk7IAfxNmy-195" edge="1">
          <mxGeometry width="50" height="50" relative="1" as="geometry">
            <mxPoint x="1144" y="630" as="sourcePoint" />
            <mxPoint x="1144" y="140.25" as="targetPoint" />
          </mxGeometry>
        </mxCell>
        <mxCell id="LmDO0q7671CDZD-JZqE9-1" value="" style="endArrow=none;html=1;" edge="1" parent="JgftFQ6_yCxk7IAfxNmy-195">
          <mxGeometry width="50" height="50" relative="1" as="geometry">
            <mxPoint x="1035" y="625" as="sourcePoint" />
            <mxPoint x="1045" y="615" as="targetPoint" />
            <Array as="points">
              <mxPoint x="1035" y="625" />
            </Array>
          </mxGeometry>
        </mxCell>
        <mxCell id="LmDO0q7671CDZD-JZqE9-3" value="3" style="edgeLabel;html=1;align=center;verticalAlign=middle;resizable=0;points=[];labelBackgroundColor=none;" vertex="1" connectable="0" parent="LmDO0q7671CDZD-JZqE9-1">
          <mxGeometry x="0.6032" relative="1" as="geometry">
            <mxPoint x="-9.98" y="-0.019999999999999574" as="offset" />
          </mxGeometry>
        </mxCell>
        <mxCell id="LmDO0q7671CDZD-JZqE9-2" value="" style="endArrow=none;html=1;" edge="1" parent="JgftFQ6_yCxk7IAfxNmy-195">
          <mxGeometry width="50" height="50" relative="1" as="geometry">
            <mxPoint x="1052.5" y="625" as="sourcePoint" />
            <mxPoint x="1062.5" y="615" as="targetPoint" />
            <Array as="points">
              <mxPoint x="1052.5" y="625" />
            </Array>
          </mxGeometry>
        </mxCell>
        <mxCell id="LmDO0q7671CDZD-JZqE9-4" value="3" style="edgeLabel;html=1;align=center;verticalAlign=middle;resizable=0;points=[];labelBackgroundColor=none;" vertex="1" connectable="0" parent="JgftFQ6_yCxk7IAfxNmy-195">
          <mxGeometry x="1039.0034636585576" y="622.9965363414422" as="geometry">
            <mxPoint x="11" y="-6" as="offset" />
          </mxGeometry>
        </mxCell>
        <mxCell id="LmDO0q7671CDZD-JZqE9-6" value="" style="endArrow=none;html=1;" edge="1" parent="JgftFQ6_yCxk7IAfxNmy-195">
          <mxGeometry width="50" height="50" relative="1" as="geometry">
            <mxPoint x="886" y="624" as="sourcePoint" />
            <mxPoint x="896" y="614" as="targetPoint" />
            <Array as="points">
              <mxPoint x="886" y="624" />
            </Array>
          </mxGeometry>
        </mxCell>
        <mxCell id="JgftFQ6_yCxk7IAfxNmy-202" value="EN1" style="text;html=1;strokeColor=none;fillColor=none;align=center;verticalAlign=middle;whiteSpace=wrap;rounded=0;dashed=1;fontSize=15;horizontal=0;" parent="1" vertex="1">
          <mxGeometry x="800" y="900" width="40" height="20" as="geometry" />
        </mxCell>
        <mxCell id="JgftFQ6_yCxk7IAfxNmy-203" value="EN2" style="text;html=1;strokeColor=none;fillColor=none;align=center;verticalAlign=middle;whiteSpace=wrap;rounded=0;dashed=1;fontSize=15;horizontal=0;" parent="1" vertex="1">
          <mxGeometry x="880" y="900" width="40" height="20" as="geometry" />
        </mxCell>
        <mxCell id="JgftFQ6_yCxk7IAfxNmy-204" value="RF_RD1" style="text;html=1;strokeColor=none;fillColor=none;align=center;verticalAlign=middle;whiteSpace=wrap;rounded=0;dashed=1;fontSize=15;horizontal=0;" parent="1" vertex="1">
          <mxGeometry x="900" y="900" width="40" height="20" as="geometry" />
        </mxCell>
        <mxCell id="JgftFQ6_yCxk7IAfxNmy-205" value="RF_RD2" style="text;html=1;strokeColor=none;fillColor=none;align=center;verticalAlign=middle;whiteSpace=wrap;rounded=0;dashed=1;fontSize=15;horizontal=0;" parent="1" vertex="1">
          <mxGeometry x="920" y="900" width="40" height="20" as="geometry" />
        </mxCell>
        <mxCell id="JgftFQ6_yCxk7IAfxNmy-206" value="MuxIMM_SEL" style="text;html=1;strokeColor=none;fillColor=none;align=center;verticalAlign=middle;whiteSpace=wrap;rounded=0;dashed=1;fontSize=15;horizontal=0;" parent="1" vertex="1">
          <mxGeometry x="940" y="900" width="40" height="20" as="geometry" />
        </mxCell>
        <mxCell id="JgftFQ6_yCxk7IAfxNmy-209" value="EN3" style="text;html=1;strokeColor=none;fillColor=none;align=center;verticalAlign=middle;whiteSpace=wrap;rounded=0;dashed=1;fontSize=15;horizontal=0;" parent="1" vertex="1">
          <mxGeometry x="1020" y="900" width="40" height="20" as="geometry" />
        </mxCell>
        <mxCell id="JgftFQ6_yCxk7IAfxNmy-210" value="MuxA_SEL" style="text;html=1;strokeColor=none;fillColor=none;align=center;verticalAlign=middle;whiteSpace=wrap;rounded=0;dashed=1;fontSize=15;horizontal=0;" parent="1" vertex="1">
          <mxGeometry x="1040" y="900" width="40" height="20" as="geometry" />
        </mxCell>
        <mxCell id="JgftFQ6_yCxk7IAfxNmy-211" value="MuxB_SEL" style="text;html=1;strokeColor=none;fillColor=none;align=center;verticalAlign=middle;whiteSpace=wrap;rounded=0;dashed=1;fontSize=15;horizontal=0;" parent="1" vertex="1">
          <mxGeometry x="1060" y="900" width="40" height="20" as="geometry" />
        </mxCell>
        <mxCell id="JgftFQ6_yCxk7IAfxNmy-212" value="EQ_COND" style="text;html=1;strokeColor=none;fillColor=none;align=center;verticalAlign=middle;whiteSpace=wrap;rounded=0;dashed=1;fontSize=15;horizontal=0;" parent="1" vertex="1">
          <mxGeometry x="1080" y="900" width="40" height="20" as="geometry" />
        </mxCell>
        <mxCell id="JgftFQ6_yCxk7IAfxNmy-213" value="EN4" style="text;html=1;strokeColor=none;fillColor=none;align=center;verticalAlign=middle;whiteSpace=wrap;rounded=0;dashed=1;fontSize=15;horizontal=0;" parent="1" vertex="1">
          <mxGeometry x="1210" y="900" width="40" height="20" as="geometry" />
        </mxCell>
        <mxCell id="JgftFQ6_yCxk7IAfxNmy-214" value="RF_WE_MEM" style="text;html=1;strokeColor=none;fillColor=none;align=center;verticalAlign=middle;whiteSpace=wrap;rounded=0;dashed=1;fontSize=15;horizontal=0;" parent="1" vertex="1">
          <mxGeometry x="1230" y="910" width="40" height="20" as="geometry" />
        </mxCell>
        <mxCell id="JgftFQ6_yCxk7IAfxNmy-215" value="DRAM_WE" style="text;html=1;strokeColor=none;fillColor=none;align=center;verticalAlign=middle;whiteSpace=wrap;rounded=0;dashed=1;fontSize=15;horizontal=0;" parent="1" vertex="1">
          <mxGeometry x="1250" y="900" width="40" height="20" as="geometry" />
        </mxCell>
        <mxCell id="JgftFQ6_yCxk7IAfxNmy-216" value="SIGN_LD_EN" style="text;html=1;strokeColor=none;fillColor=none;align=center;verticalAlign=middle;whiteSpace=wrap;rounded=0;dashed=1;fontSize=15;horizontal=0;" parent="1" vertex="1">
          <mxGeometry x="1270" y="908" width="40" height="20" as="geometry" />
        </mxCell>
        <mxCell id="JgftFQ6_yCxk7IAfxNmy-217" value="MuxLD_SEL" style="text;html=1;strokeColor=none;fillColor=none;align=center;verticalAlign=middle;whiteSpace=wrap;rounded=0;dashed=1;fontSize=15;horizontal=0;" parent="1" vertex="1">
          <mxGeometry x="1290" y="900" width="40" height="20" as="geometry" />
        </mxCell>
        <mxCell id="JgftFQ6_yCxk7IAfxNmy-218" value="MuxSW_SEL" style="text;html=1;strokeColor=none;fillColor=none;align=center;verticalAlign=middle;whiteSpace=wrap;rounded=0;dashed=1;fontSize=15;horizontal=0;" parent="1" vertex="1">
          <mxGeometry x="1310" y="900" width="40" height="20" as="geometry" />
        </mxCell>
        <mxCell id="JgftFQ6_yCxk7IAfxNmy-219" value="JUMP_EN" style="text;html=1;strokeColor=none;fillColor=none;align=center;verticalAlign=middle;whiteSpace=wrap;rounded=0;dashed=1;fontSize=15;horizontal=0;" parent="1" vertex="1">
          <mxGeometry x="1100" y="900" width="40" height="20" as="geometry" />
        </mxCell>
        <mxCell id="JgftFQ6_yCxk7IAfxNmy-220" value="RF_WE_EX" style="text;html=1;strokeColor=none;fillColor=none;align=center;verticalAlign=middle;whiteSpace=wrap;rounded=0;dashed=1;fontSize=15;horizontal=0;" parent="1" vertex="1">
          <mxGeometry x="1120" y="900" width="40" height="20" as="geometry" />
        </mxCell>
        <mxCell id="JgftFQ6_yCxk7IAfxNmy-221" value="MuxWB_SEL" style="text;html=1;strokeColor=none;fillColor=none;align=center;verticalAlign=middle;whiteSpace=wrap;rounded=0;dashed=1;fontSize=15;horizontal=0;" parent="1" vertex="1">
          <mxGeometry x="1374" y="900" width="40" height="20" as="geometry" />
        </mxCell>
        <mxCell id="JgftFQ6_yCxk7IAfxNmy-222" value="RF_WE" style="text;html=1;strokeColor=none;fillColor=none;align=center;verticalAlign=middle;whiteSpace=wrap;rounded=0;dashed=1;fontSize=15;horizontal=0;" parent="1" vertex="1">
          <mxGeometry x="1394" y="900" width="40" height="20" as="geometry" />
        </mxCell>
        <mxCell id="JgftFQ6_yCxk7IAfxNmy-225" value="ALU_OPCODE" style="text;html=1;strokeColor=none;fillColor=none;align=center;verticalAlign=middle;whiteSpace=wrap;rounded=0;dashed=1;fontSize=15;horizontal=0;" parent="1" vertex="1">
          <mxGeometry x="1140" y="910" width="40" height="20" as="geometry" />
        </mxCell>
        <mxCell id="JgftFQ6_yCxk7IAfxNmy-227" value="J&amp;amp;L" style="text;html=1;strokeColor=none;fillColor=none;align=center;verticalAlign=middle;whiteSpace=wrap;rounded=0;dashed=1;fontSize=15;horizontal=0;" parent="1" vertex="1">
          <mxGeometry x="1414" y="900" width="40" height="20" as="geometry" />
        </mxCell>
        <mxCell id="JgftFQ6_yCxk7IAfxNmy-229" value="SIGN_EN" style="text;html=1;strokeColor=none;fillColor=none;align=center;verticalAlign=middle;whiteSpace=wrap;rounded=0;dashed=1;fontSize=15;horizontal=0;" parent="1" vertex="1">
          <mxGeometry x="960" y="900" width="40" height="20" as="geometry" />
        </mxCell>
        <mxCell id="JgftFQ6_yCxk7IAfxNmy-232" value="RST" style="edgeLabel;html=1;align=center;verticalAlign=middle;resizable=0;points=[];fontSize=15;" parent="1" vertex="1" connectable="0">
          <mxGeometry x="259.9514285714286" y="285" as="geometry">
            <mxPoint x="-10" y="-49" as="offset" />
          </mxGeometry>
        </mxCell>
        <mxCell id="JgftFQ6_yCxk7IAfxNmy-233" value="CLK" style="edgeLabel;html=1;align=center;verticalAlign=middle;resizable=0;points=[];fontSize=15;" parent="1" vertex="1" connectable="0">
          <mxGeometry x="259.9514285714286" y="260" as="geometry">
            <mxPoint x="-10" y="-49" as="offset" />
          </mxGeometry>
        </mxCell>
      </root>
    </mxGraphModel>
  </diagram>
</mxfile>
